<svg id="visual" viewBox="0 0 900 600" width="900" height="600" xmlns="http://www.w3.org/2000/svg" xmlns:xlink="http://www.w3.org/1999/xlink" version="1.1"><rect x="0" y="0" width="900" height="600" fill="#001220"></rect><defs><linearGradient id="grad1_0" x1="33.3%" y1="0%" x2="100%" y2="100%"><stop offset="20%" stop-color="#fbae3c" stop-opacity="1"></stop><stop offset="80%" stop-color="#fbae3c" stop-opacity="1"></stop></linearGradient></defs><defs><linearGradient id="grad1_1" x1="33.3%" y1="0%" x2="100%" y2="100%"><stop offset="20%" stop-color="#fbae3c" stop-opacity="1"></stop><stop offset="80%" stop-color="#f48350" stop-opacity="1"></stop></linearGradient></defs><defs><linearGradient id="grad1_2" x1="33.3%" y1="0%" x2="100%" y2="100%"><stop offset="20%" stop-color="#d96162" stop-opacity="1"></stop><stop offset="80%" stop-color="#f48350" stop-opacity="1"></stop></linearGradient></defs><defs><linearGradient id="grad1_3" x1="33.3%" y1="0%" x2="100%" y2="100%"><stop offset="20%" stop-color="#d96162" stop-opacity="1"></stop><stop offset="80%" stop-color="#af4b6d" stop-opacity="1"></stop></linearGradient></defs><defs><linearGradient id="grad1_4" x1="33.3%" y1="0%" x2="100%" y2="100%"><stop offset="20%" stop-color="#7c3e6b" stop-opacity="1"></stop><stop offset="80%" stop-color="#af4b6d" stop-opacity="1"></stop></linearGradient></defs><defs><linearGradient id="grad1_5" x1="33.3%" y1="0%" x2="100%" y2="100%"><stop offset="20%" stop-color="#7c3e6b" stop-opacity="1"></stop><stop offset="80%" stop-color="#49335c" stop-opacity="1"></stop></linearGradient></defs><defs><linearGradient id="grad1_6" x1="33.3%" y1="0%" x2="100%" y2="100%"><stop offset="20%" stop-color="#1d2540" stop-opacity="1"></stop><stop offset="80%" stop-color="#49335c" stop-opacity="1"></stop></linearGradient></defs><defs><linearGradient id="grad1_7" x1="33.3%" y1="0%" x2="100%" y2="100%"><stop offset="20%" stop-color="#1d2540" stop-opacity="1"></stop><stop offset="80%" stop-color="#001220" stop-opacity="1"></stop></linearGradient></defs><defs><linearGradient id="grad2_0" x1="0%" y1="0%" x2="66.7%" y2="100%"><stop offset="20%" stop-color="#fbae3c" stop-opacity="1"></stop><stop offset="80%" stop-color="#fbae3c" stop-opacity="1"></stop></linearGradient></defs><defs><linearGradient id="grad2_1" x1="0%" y1="0%" x2="66.7%" y2="100%"><stop offset="20%" stop-color="#f48350" stop-opacity="1"></stop><stop offset="80%" stop-color="#fbae3c" stop-opacity="1"></stop></linearGradient></defs><defs><linearGradient id="grad2_2" x1="0%" y1="0%" x2="66.7%" y2="100%"><stop offset="20%" stop-color="#f48350" stop-opacity="1"></stop><stop offset="80%" stop-color="#d96162" stop-opacity="1"></stop></linearGradient></defs><defs><linearGradient id="grad2_3" x1="0%" y1="0%" x2="66.7%" y2="100%"><stop offset="20%" stop-color="#af4b6d" stop-opacity="1"></stop><stop offset="80%" stop-color="#d96162" stop-opacity="1"></stop></linearGradient></defs><defs><linearGradient id="grad2_4" x1="0%" y1="0%" x2="66.7%" y2="100%"><stop offset="20%" stop-color="#af4b6d" stop-opacity="1"></stop><stop offset="80%" stop-color="#7c3e6b" stop-opacity="1"></stop></linearGradient></defs><defs><linearGradient id="grad2_5" x1="0%" y1="0%" x2="66.7%" y2="100%"><stop offset="20%" stop-color="#49335c" stop-opacity="1"></stop><stop offset="80%" stop-color="#7c3e6b" stop-opacity="1"></stop></linearGradient></defs><defs><linearGradient id="grad2_6" x1="0%" y1="0%" x2="66.7%" y2="100%"><stop offset="20%" stop-color="#49335c" stop-opacity="1"></stop><stop offset="80%" stop-color="#1d2540" stop-opacity="1"></stop></linearGradient></defs><defs><linearGradient id="grad2_7" x1="0%" y1="0%" x2="66.7%" y2="100%"><stop offset="20%" stop-color="#001220" stop-opacity="1"></stop><stop offset="80%" stop-color="#1d2540" stop-opacity="1"></stop></linearGradient></defs><g transform="translate(900, 0)"><path d="M0 486.7C-47.5 440.8 -95 394.9 -156.5 377.9C-218.1 360.9 -293.7 372.8 -344.2 344.2C-394.7 315.5 -420.2 246.3 -439.8 182.2C-459.4 118 -473 59 -486.7 0L0 0Z" fill="#0c1c30"></path><path d="M0 425.9C-41.6 385.7 -83.1 345.5 -137 330.6C-190.8 315.8 -256.9 326.2 -301.2 301.2C-345.4 276.1 -367.7 215.5 -384.8 159.4C-401.9 103.3 -413.9 51.6 -425.9 0L0 0Z" fill="#312c4f"></path><path d="M0 365.1C-35.6 330.6 -71.2 296.1 -117.4 283.4C-163.5 270.7 -220.2 279.6 -258.1 258.1C-296 236.7 -315.1 184.7 -329.8 136.6C-344.5 88.5 -354.8 44.3 -365.1 0L0 0Z" fill="#623965"></path><path d="M0 304.2C-29.7 275.5 -59.4 246.8 -97.8 236.2C-136.3 225.5 -183.5 233 -215.1 215.1C-246.7 197.2 -262.6 153.9 -274.9 113.8C-287.1 73.8 -295.7 36.9 -304.2 0L0 0Z" fill="#96446e"></path><path d="M0 243.4C-23.7 220.4 -47.5 197.4 -78.3 188.9C-109 180.4 -146.8 186.4 -172.1 172.1C-197.4 157.8 -210.1 123.1 -219.9 91.1C-229.7 59 -236.5 29.5 -243.4 0L0 0Z" fill="#c55469"></path><path d="M0 182.5C-17.8 165.3 -35.6 148.1 -58.7 141.7C-81.8 135.3 -110.1 139.8 -129.1 129.1C-148 118.3 -157.6 92.4 -164.9 68.3C-172.3 44.3 -177.4 22.1 -182.5 0L0 0Z" fill="#e9705a"></path><path d="M0 121.7C-11.9 110.2 -23.7 98.7 -39.1 94.5C-54.5 90.2 -73.4 93.2 -86 86C-98.7 78.9 -105 61.6 -109.9 45.5C-114.8 29.5 -118.3 14.8 -121.7 0L0 0Z" fill="#fa9845"></path><path d="M0 60.8C-5.9 55.1 -11.9 49.4 -19.6 47.2C-27.3 45.1 -36.7 46.6 -43 43C-49.3 39.4 -52.5 30.8 -55 22.8C-57.4 14.8 -59.1 7.4 -60.8 0L0 0Z" fill="#fbae3c"></path></g><g transform="translate(0, 600)"><path d="M0 -486.7C68.6 -485 137.3 -483.3 186.3 -449.7C235.3 -416.1 264.6 -350.5 301.2 -301.2C337.9 -251.9 381.8 -218.9 413.9 -171.4C446 -123.9 466.4 -62 486.7 0L0 0Z" fill="#0c1c30"></path><path d="M0 -425.9C60.1 -424.4 120.1 -422.9 163 -393.5C205.9 -364.1 231.5 -306.7 263.6 -263.6C295.6 -220.5 334 -191.6 362.2 -150C390.3 -108.5 408.1 -54.2 425.9 0L0 0Z" fill="#312c4f"></path><path d="M0 -365.1C51.5 -363.8 103 -362.5 139.7 -337.3C176.4 -312 198.5 -262.9 225.9 -225.9C253.4 -189 286.3 -164.2 310.4 -128.6C334.5 -93 349.8 -46.5 365.1 0L0 0Z" fill="#623965"></path><path d="M0 -304.2C42.9 -303.1 85.8 -302.1 116.4 -281.1C147 -260 165.4 -219.1 188.3 -188.3C211.2 -157.5 238.6 -136.8 258.7 -107.2C278.8 -77.5 291.5 -38.7 304.2 0L0 0Z" fill="#96446e"></path><path d="M0 -243.4C34.3 -242.5 68.6 -241.7 93.1 -224.8C117.6 -208 132.3 -175.3 150.6 -150.6C168.9 -126 190.9 -109.5 206.9 -85.7C223 -62 233.2 -31 243.4 0L0 0Z" fill="#c55469"></path><path d="M0 -182.5C25.7 -181.9 51.5 -181.2 69.9 -168.6C88.2 -156 99.2 -131.4 113 -113C126.7 -94.5 143.2 -82.1 155.2 -64.3C167.3 -46.5 174.9 -23.2 182.5 0L0 0Z" fill="#e9705a"></path><path d="M0 -121.7C17.2 -121.3 34.3 -120.8 46.6 -112.4C58.8 -104 66.2 -87.6 75.3 -75.3C84.5 -63 95.4 -54.7 103.5 -42.9C111.5 -31 116.6 -15.5 121.7 0L0 0Z" fill="#fa9845"></path><path d="M0 -60.8C8.6 -60.6 17.2 -60.4 23.3 -56.2C29.4 -52 33.1 -43.8 37.7 -37.7C42.2 -31.5 47.7 -27.4 51.7 -21.4C55.8 -15.5 58.3 -7.7 60.8 0L0 0Z" fill="#fbae3c"></path></g></svg>